<svg xmlns="http://www.w3.org/2000/svg"
width="35" height="38" viewBox="0 0 43 38" fill="none">
<path
    d="M0 3.5625C0 2.61767 0.42472 1.71153 1.18073 1.04343C1.93673 0.375334 2.9621 0 4.03125 0L38.9688 0C40.0379 0 41.0633 0.375334 41.8193 1.04343C42.5753 1.71153 43 2.61767 43 3.5625V8.3125C43 9.25733 42.5753 10.1635 41.8193 10.8316C41.0633 11.4997 40.0379 11.875 38.9688 11.875H4.03125C2.9621 11.875 1.93673 11.4997 1.18073 10.8316C0.42472 10.1635 0 9.25733 0 8.3125L0 3.5625ZM4.03125 2.375C3.67487 2.375 3.33308 2.50011 3.08108 2.72281C2.82907 2.94551 2.6875 3.24756 2.6875 3.5625V8.3125C2.6875 8.62744 2.82907 8.92949 3.08108 9.15219C3.33308 9.37489 3.67487 9.5 4.03125 9.5H38.9688C39.3251 9.5 39.6669 9.37489 39.9189 9.15219C40.1709 8.92949 40.3125 8.62744 40.3125 8.3125V3.5625C40.3125 3.24756 40.1709 2.94551 39.9189 2.72281C39.6669 2.50011 39.3251 2.375 38.9688 2.375H4.03125Z"
    fill="#4d4d4d" />
<path
    d="M5.375 5.9375C5.375 5.62256 5.51657 5.32051 5.76858 5.09781C6.02058 4.87511 6.36237 4.75 6.71875 4.75H14.7812C15.1376 4.75 15.4794 4.87511 15.7314 5.09781C15.9834 5.32051 16.125 5.62256 16.125 5.9375C16.125 6.25245 15.9834 6.55449 15.7314 6.77719C15.4794 6.99989 15.1376 7.125 14.7812 7.125H6.71875C6.36237 7.125 6.02058 6.99989 5.76858 6.77719C5.51657 6.55449 5.375 6.25245 5.375 5.9375ZM34.4618 6.70463L33.3976 5.76413C33.3034 5.68108 33.2392 5.57519 33.2132 5.45988C33.1871 5.34456 33.2004 5.22501 33.2514 5.11639C33.3023 5.00776 33.3886 4.91495 33.4993 4.84973C33.6101 4.7845 33.7402 4.74979 33.8732 4.75H36.0018C36.1348 4.74979 36.2649 4.7845 36.3757 4.84973C36.4864 4.91495 36.5727 5.00776 36.6236 5.11639C36.6746 5.22501 36.6879 5.34456 36.6618 5.45988C36.6358 5.57519 36.5716 5.68108 36.4774 5.76413L35.4132 6.70463C35.3508 6.75992 35.2766 6.80379 35.195 6.83372C35.1134 6.86365 35.0259 6.87906 34.9375 6.87906C34.8491 6.87906 34.7616 6.86365 34.68 6.83372C34.5984 6.80379 34.5242 6.75992 34.4618 6.70463ZM0 19C0 17.7402 0.566293 16.532 1.5743 15.6412C2.58231 14.7504 3.94946 14.25 5.375 14.25H37.625C39.0505 14.25 40.4177 14.7504 41.4257 15.6412C42.4337 16.532 43 17.7402 43 19V30.875C43 32.1348 42.4337 33.343 41.4257 34.2338C40.4177 35.1246 39.0505 35.625 37.625 35.625H5.375C3.94946 35.625 2.58231 35.1246 1.5743 34.2338C0.566293 33.343 0 32.1348 0 30.875V19ZM2.6875 26.125V30.875C2.6875 31.5049 2.97065 32.109 3.47465 32.5544C3.97865 32.9998 4.66223 33.25 5.375 33.25H37.625C38.3378 33.25 39.0213 32.9998 39.5253 32.5544C40.0294 32.109 40.3125 31.5049 40.3125 30.875V26.125H2.6875ZM40.3125 23.75V19C40.3125 18.3701 40.0294 17.766 39.5253 17.3206C39.0213 16.8752 38.3378 16.625 37.625 16.625H5.375C4.66223 16.625 3.97865 16.8752 3.47465 17.3206C2.97065 17.766 2.6875 18.3701 2.6875 19V23.75H40.3125ZM5.375 20.1875C5.375 19.8726 5.51657 19.5705 5.76858 19.3478C6.02058 19.1251 6.36237 19 6.71875 19H30.9062C31.2626 19 31.6044 19.1251 31.8564 19.3478C32.1084 19.5705 32.25 19.8726 32.25 20.1875C32.25 20.5024 32.1084 20.8045 31.8564 21.0272C31.6044 21.2499 31.2626 21.375 30.9062 21.375H6.71875C6.36237 21.375 6.02058 21.2499 5.76858 21.0272C5.51657 20.8045 5.375 20.5024 5.375 20.1875ZM5.375 29.6875C5.375 29.3726 5.51657 29.0705 5.76858 28.8478C6.02058 28.6251 6.36237 28.5 6.71875 28.5H22.8438C23.2001 28.5 23.5419 28.6251 23.7939 28.8478C24.0459 29.0705 24.1875 29.3726 24.1875 29.6875C24.1875 30.0024 24.0459 30.3045 23.7939 30.5272C23.5419 30.7499 23.2001 30.875 22.8438 30.875H6.71875C6.36237 30.875 6.02058 30.7499 5.76858 30.5272C5.51657 30.3045 5.375 30.0024 5.375 29.6875Z"
    fill="#4d4d4d" />
</svg>
