<svg width="25" height="29" viewBox="0 0 35 29" fill="none" xmlns="http://www.w3.org/2000/svg">
<path d="M9.57039 10.5233C9.56791 10.5818 9.57743 10.6402 9.59836 10.6949C9.61929 10.7496 9.6512 10.7995 9.69211 10.8414C9.73303 10.8834 9.78208 10.9165 9.83627 10.9388C9.89046 10.961 9.94863 10.972 10.0072 10.9709H11.5025C11.7526 10.9709 11.952 10.7661 11.9846 10.5178C12.1478 9.32882 12.9634 8.46245 14.417 8.46245C15.6604 8.46245 16.7986 9.08413 16.7986 10.5794C16.7986 11.7304 16.1208 12.2596 15.0496 13.0644C13.8298 13.9507 12.8637 14.9856 12.9326 16.6658L12.938 17.0591C12.9399 17.178 12.9885 17.2914 13.0733 17.3749C13.158 17.4583 13.2722 17.505 13.3911 17.505H14.8611C14.9813 17.505 15.0965 17.4573 15.1815 17.3723C15.2665 17.2873 15.3142 17.1721 15.3142 17.0519V16.8616C15.3142 15.5602 15.809 15.1814 17.1448 14.1682C18.2486 13.329 19.3996 12.3974 19.3996 10.4417C19.3996 7.70301 17.0868 6.37988 14.5548 6.37988C12.2583 6.37988 9.74258 7.44926 9.57039 10.5233ZM12.3925 20.9687C12.3925 21.9348 13.1628 22.6489 14.2231 22.6489C15.3269 22.6489 16.0863 21.9348 16.0863 20.9687C16.0863 19.9682 15.3251 19.2649 14.2213 19.2649C13.1628 19.2649 12.3925 19.9682 12.3925 20.9687Z" fill="#4D4D4D"/>
<g clip-path="url(#clip0_1582_5304)">
<path d="M14.5 27.1875C11.1351 27.1875 7.90795 25.8508 5.52858 23.4714C3.14921 21.092 1.8125 17.8649 1.8125 14.5C1.8125 11.1351 3.14921 7.90795 5.52858 5.52858C7.90795 3.14921 11.1351 1.8125 14.5 1.8125C17.8649 1.8125 21.092 3.14921 23.4714 5.52858C25.8508 7.90795 27.1875 11.1351 27.1875 14.5C27.1875 17.8649 25.8508 21.092 23.4714 23.4714C21.092 25.8508 17.8649 27.1875 14.5 27.1875ZM14.5 29C18.3456 29 22.0338 27.4723 24.753 24.753C27.4723 22.0338 29 18.3456 29 14.5C29 10.6544 27.4723 6.96623 24.753 4.24695C22.0338 1.52767 18.3456 0 14.5 0C10.6544 0 6.96623 1.52767 4.24695 4.24695C1.52767 6.96623 0 10.6544 0 14.5C0 18.3456 1.52767 22.0338 4.24695 24.753C6.96623 27.4723 10.6544 29 14.5 29Z" fill="#4D4D4D"/>
</g>
<defs>
<clipPath id="clip0_1582_5304">
<rect width="29" height="29" fill="white"/>
</clipPath>
</defs>
</svg>
