<svg width="28" height="37" viewBox="0 0 35 37" fill="none" xmlns="http://www.w3.org/2000/svg">
<g id="Icon-logout">
<path id="Vector" d="M5.83335 18.3345H19.6875M8.75002 22.9183L4.37502 18.3345L8.75002 13.7508M16.0417 10.695V9.16713C16.0417 8.35668 16.349 7.57943 16.896 7.00635C17.4429 6.43328 18.1848 6.11133 18.9584 6.11133H26.25C27.0236 6.11133 27.7654 6.43328 28.3124 7.00635C28.8594 7.57943 29.1667 8.35668 29.1667 9.16713V27.502C29.1667 28.3124 28.8594 29.0897 28.3124 29.6627C27.7654 30.2358 27.0236 30.5578 26.25 30.5578H18.9584C18.1848 30.5578 17.4429 30.2358 16.896 29.6627C16.349 29.0897 16.0417 28.3124 16.0417 27.502V25.9741" stroke="#4D4D4D" stroke-width="1.5" stroke-linecap="round" stroke-linejoin="round"/>
</g>
</svg>
