<svg xmlns="http://www.w3.org/2000/svg" width="50" height="40" viewBox="0 0 50 40" fill="none">
  <path d="M46.875 40C46.875 40 50 40 50 36.6667C50 33.3333 46.875 23.3333 34.375 23.3333C21.875 23.3333 18.75 33.3333 18.75 36.6667C18.75 40 21.875 40 21.875 40H46.875ZM21.9438 36.6667C21.9207 36.6633 21.8977 36.6588 21.875 36.6533C21.8781 35.7733 22.3969 33.22 24.25 30.92C25.975 28.7633 29.0063 26.6667 34.375 26.6667C39.7406 26.6667 42.7719 28.7667 44.5 30.92C46.3531 33.22 46.8688 35.7767 46.875 36.6533L46.85 36.66C46.8355 36.6626 46.8209 36.6648 46.8062 36.6667H21.9438ZM34.375 16.6667C36.0326 16.6667 37.6223 15.9643 38.7944 14.714C39.9665 13.4638 40.625 11.7681 40.625 10C40.625 8.23189 39.9665 6.5362 38.7944 5.28595C37.6223 4.03571 36.0326 3.33333 34.375 3.33333C32.7174 3.33333 31.1277 4.03571 29.9556 5.28595C28.7835 6.5362 28.125 8.23189 28.125 10C28.125 11.7681 28.7835 13.4638 29.9556 14.714C31.1277 15.9643 32.7174 16.6667 34.375 16.6667ZM43.75 10C43.75 11.3132 43.5075 12.6136 43.0364 13.8268C42.5652 15.0401 41.8747 16.1425 41.0041 17.0711C40.1336 17.9997 39.1001 18.7362 37.9627 19.2388C36.8252 19.7413 35.6061 20 34.375 20C33.1439 20 31.9248 19.7413 30.7873 19.2388C29.6499 18.7362 28.6164 17.9997 27.7459 17.0711C26.8753 16.1425 26.1848 15.0401 25.7136 13.8268C25.2425 12.6136 25 11.3132 25 10C25 7.34784 25.9877 4.8043 27.7459 2.92893C29.504 1.05357 31.8886 0 34.375 0C36.8614 0 39.246 1.05357 41.0041 2.92893C42.7623 4.8043 43.75 7.34784 43.75 10ZM21.675 24.2667C20.4249 23.8468 19.1364 23.5708 17.8312 23.4433C17.0979 23.3689 16.3616 23.3322 15.625 23.3333C3.125 23.3333 0 33.3333 0 36.6667C0 38.89 1.04062 40 3.125 40H16.3C15.8367 38.9594 15.6057 37.8185 15.625 36.6667C15.625 33.3 16.8031 29.86 19.0312 26.9867C19.7906 26.0067 20.675 25.09 21.675 24.2667ZM15.375 26.6667C13.5255 29.6309 12.5264 33.1061 12.5 36.6667H3.125C3.125 35.8 3.6375 33.2333 5.5 30.92C7.20312 28.8 10.1625 26.7333 15.375 26.67V26.6667ZM4.6875 11.6667C4.6875 9.0145 5.67522 6.47096 7.43337 4.5956C9.19153 2.72024 11.5761 1.66667 14.0625 1.66667C16.5489 1.66667 18.9335 2.72024 20.6916 4.5956C22.4498 6.47096 23.4375 9.0145 23.4375 11.6667C23.4375 14.3188 22.4498 16.8624 20.6916 18.7377C18.9335 20.6131 16.5489 21.6667 14.0625 21.6667C11.5761 21.6667 9.19153 20.6131 7.43337 18.7377C5.67522 16.8624 4.6875 14.3188 4.6875 11.6667ZM14.0625 5C12.4049 5 10.8152 5.70238 9.64308 6.95262C8.47098 8.20286 7.8125 9.89856 7.8125 11.6667C7.8125 13.4348 8.47098 15.1305 9.64308 16.3807C10.8152 17.631 12.4049 18.3333 14.0625 18.3333C15.7201 18.3333 17.3098 17.631 18.4819 16.3807C19.654 15.1305 20.3125 13.4348 20.3125 11.6667C20.3125 9.89856 19.654 8.20286 18.4819 6.95262C17.3098 5.70238 15.7201 5 14.0625 5Z" fill="#EDEDED"/>
</svg>