<svg xmlns="http://www.w3.org/2000/svg" width="24" height="26" viewBox="0 0 24 26" fill="none">
  <path d="M21.5688 8.23154C21.5695 8.09445 21.5448 7.95856 21.496 7.83164C21.4472 7.70473 21.3753 7.58929 21.2845 7.49196L17.1276 3.07529C17.036 2.97875 16.9274 2.90237 16.8079 2.85053C16.6885 2.79869 16.5606 2.77242 16.4315 2.77321C16.3025 2.77242 16.1746 2.79869 16.0552 2.85053C15.9357 2.90237 15.8271 2.97875 15.7355 3.07529L12.961 6.02321L2.24527 17.4086C2.1544 17.506 2.08252 17.6214 2.03373 17.7483C1.98494 17.8752 1.96021 18.0111 1.96095 18.1482V22.5649C1.96095 22.8411 2.06424 23.1061 2.2481 23.3014C2.43196 23.4968 2.68133 23.6065 2.94135 23.6065H7.09821C7.23539 23.6145 7.37261 23.5917 7.50097 23.5396C7.62933 23.4876 7.74596 23.4075 7.84331 23.3045L18.5002 11.919L21.2845 9.02321C21.374 8.92225 21.4469 8.80606 21.5002 8.67946C21.5096 8.59643 21.5096 8.51249 21.5002 8.42946C21.5048 8.38097 21.5048 8.33212 21.5002 8.28363L21.5688 8.23154ZM6.69625 21.5232H3.92174V18.5753L13.657 8.23154L16.4315 11.1795L6.69625 21.5232ZM17.8139 9.71071L15.0394 6.76279L16.4315 5.29404L19.1962 8.23154L17.8139 9.71071Z" fill="#4E4F54"/>
</svg>