<svg xmlns="http://www.w3.org/2000/svg" width="130" height="130" viewBox="0 0 130 130" fill="none">
  <circle cx="65" cy="65" r="60.5" stroke="white" stroke-width="9"/>
  <path d="M40 84.8643C40.8903 96.7714 49.1013 105.221 61.6013 106.314V115H67.8754V106.314C81.5303 105.036 90 96.0429 90 82.7429C90 71.3857 84.3034 64.8143 72.2185 61.1143L67.8754 59.7786V32.6214C74.6246 33.4071 79.1783 37.7214 80.3272 44.1643H89.1699C88.1713 32.7357 79.9062 24.5357 67.8754 23.6286V15H61.6013V23.8071C49.9374 25.45 41.9309 34.3214 41.9309 46.35C41.9309 56.7357 47.7418 64.0857 57.9379 67.1857L61.6073 68.3429V97.1357C54.6956 95.9214 49.9374 91.4214 48.7885 84.8643H40ZM60.3982 57.4643C54.1242 55.5857 50.7736 51.5714 50.7736 45.9214C50.7736 39.1786 55.0084 34.2 61.6013 32.8643V57.8286L60.3982 57.4643ZM69.9687 70.8357C77.7105 73.1429 81.1092 76.9714 81.1092 83.4714C81.1092 91.3071 76.1405 96.5286 67.8754 97.3214V70.2143L69.9687 70.8286V70.8357Z" fill="white"/>
</svg>