<svg xmlns="http://www.w3.org/2000/svg" width="40" height="41" viewBox="0 0 40 41" fill="none">
  <path d="M0 1.83333C0 1.47971 0.14048 1.14057 0.390536 0.890524C0.640593 0.640476 0.979742 0.5 1.33337 0.5H5.3335C5.63092 0.500082 5.91978 0.599602 6.15414 0.782733C6.3885 0.965863 6.55489 1.22209 6.62687 1.51067L7.7069 5.83333H38.6679C38.8636 5.83351 39.057 5.87681 39.2341 5.96014C39.4113 6.04346 39.568 6.16478 39.6929 6.31548C39.8179 6.46617 39.9082 6.64254 39.9573 6.83205C40.0065 7.02156 40.0133 7.21957 39.9772 7.412L35.9771 28.7453C35.9199 29.0509 35.7578 29.3268 35.5187 29.5255C35.2796 29.7242 34.9786 29.833 34.6677 29.8333H10.667C10.3561 29.833 10.0552 29.7242 9.81606 29.5255C9.57698 29.3268 9.41482 29.0509 9.35762 28.7453L5.36017 7.452L4.29347 3.16667H1.33337C0.979742 3.16667 0.640593 3.02619 0.390536 2.77614C0.14048 2.52609 0 2.18696 0 1.83333ZM8.27225 8.5L11.7737 27.1667H33.561L37.0625 8.5H8.27225ZM13.3337 29.8333C11.9192 29.8333 10.5626 30.3952 9.56239 31.3954C8.56217 32.3956 8.00025 33.7522 8.00025 35.1667C8.00025 36.5812 8.56217 37.9377 9.56239 38.9379C10.5626 39.9381 11.9192 40.5 13.3337 40.5C14.7483 40.5 16.1049 39.9381 17.1051 38.9379C18.1053 37.9377 18.6672 36.5812 18.6672 35.1667C18.6672 33.7522 18.1053 32.3956 17.1051 31.3954C16.1049 30.3952 14.7483 29.8333 13.3337 29.8333ZM32.001 29.8333C30.5865 29.8333 29.2299 30.3952 28.2296 31.3954C27.2294 32.3956 26.6675 33.7522 26.6675 35.1667C26.6675 36.5812 27.2294 37.9377 28.2296 38.9379C29.2299 39.9381 30.5865 40.5 32.001 40.5C33.4155 40.5 34.7721 39.9381 35.7723 38.9379C36.7726 37.9377 37.3345 36.5812 37.3345 35.1667C37.3345 33.7522 36.7726 32.3956 35.7723 31.3954C34.7721 30.3952 33.4155 29.8333 32.001 29.8333ZM13.3337 32.5C14.041 32.5 14.7193 32.781 15.2194 33.2811C15.7195 33.7811 16.0005 34.4594 16.0005 35.1667C16.0005 35.8739 15.7195 36.5522 15.2194 37.0523C14.7193 37.5524 14.041 37.8333 13.3337 37.8333C12.6265 37.8333 11.9482 37.5524 11.4481 37.0523C10.948 36.5522 10.667 35.8739 10.667 35.1667C10.667 34.4594 10.948 33.7811 11.4481 33.2811C11.9482 32.781 12.6265 32.5 13.3337 32.5ZM32.001 32.5C32.7083 32.5 33.3866 32.781 33.8867 33.2811C34.3868 33.7811 34.6677 34.4594 34.6677 35.1667C34.6677 35.8739 34.3868 36.5522 33.8867 37.0523C33.3866 37.5524 32.7083 37.8333 32.001 37.8333C31.2937 37.8333 30.6154 37.5524 30.1153 37.0523C29.6152 36.5522 29.3342 35.8739 29.3342 35.1667C29.3342 34.4594 29.6152 33.7811 30.1153 33.2811C30.6154 32.781 31.2937 32.5 32.001 32.5Z" fill="#EDEDED"/>
</svg>